<svg width="152" height="152" viewBox="0 0 152 152" fill="none" xmlns="http://www.w3.org/2000/svg">
<g filter="url(#filter0_d_425_308)">
<mask id="path-1-inside-1_425_308" fill="white">
<path fill-rule="evenodd" clip-rule="evenodd" d="M21 4C12.7157 4 6 10.7157 6 19V96C6 104.284 12.7157 111 21 111H55.7861L74.349 139.854L91.8887 111H127C135.284 111 142 104.284 142 96V19C142 10.7157 135.284 4 127 4H21Z"/>
</mask>
<path fill-rule="evenodd" clip-rule="evenodd" d="M21 4C12.7157 4 6 10.7157 6 19V96C6 104.284 12.7157 111 21 111H55.7861L74.349 139.854L91.8887 111H127C135.284 111 142 104.284 142 96V19C142 10.7157 135.284 4 127 4H21Z" fill="#FB6900"/>
<path d="M55.7861 111L57.4681 109.918L56.8775 109H55.7861V111ZM74.349 139.854L72.667 140.936L74.3971 143.626L76.058 140.893L74.349 139.854ZM91.8887 111V109H90.7639L90.1797 109.961L91.8887 111ZM8 19C8 11.8203 13.8203 6 21 6V2C11.6112 2 4 9.61116 4 19H8ZM8 96V19H4V96H8ZM21 109C13.8203 109 8 103.18 8 96H4C4 105.389 11.6112 113 21 113V109ZM55.7861 109H21V113H55.7861V109ZM76.031 138.772L57.4681 109.918L54.1041 112.082L72.667 140.936L76.031 138.772ZM90.1797 109.961L72.64 138.815L76.058 140.893L93.5977 112.039L90.1797 109.961ZM127 109H91.8887V113H127V109ZM140 96C140 103.18 134.18 109 127 109V113C136.389 113 144 105.389 144 96H140ZM140 19V96H144V19H140ZM127 6C134.18 6 140 11.8203 140 19H144C144 9.61116 136.389 2 127 2V6ZM21 6H127V2H21V6Z" fill="white" mask="url(#path-1-inside-1_425_308)"/>
</g>
<path fill-rule="evenodd" clip-rule="evenodd" d="M68.9422 19.2948C66.6929 20.3377 65.6815 22.9881 66.7004 25.1697L67.0886 26.0012L65.2579 26.3304C61.1123 27.0759 56.6835 28.9895 53.3162 31.4903C52.6433 31.9899 52.0592 32.3988 52.0183 32.3988C51.9774 32.3988 51.944 32.2846 51.944 32.1451C51.944 31.7078 51.3565 30.6515 50.7859 30.0633C48.6901 27.9019 44.8474 28.5692 43.6394 31.3043C42.5487 33.7739 43.9138 36.7209 46.4655 37.4055L47.0792 37.5702L46.1123 39.0148C44.8767 40.8607 43.3769 43.9212 42.6877 46.0034C42.169 47.5703 41.4178 50.8064 41.4154 51.485C41.4142 51.8118 41.4109 51.8115 40.6997 51.4097C40.0801 51.0595 39.8152 51.0059 38.7065 51.0059C37.555 51.0059 37.3456 51.0523 36.6005 51.4728C33.4261 53.2641 33.5865 57.7747 36.8823 59.401C37.9096 59.9079 39.559 59.882 40.5858 59.3429L41.337 58.9485L41.7444 61.0176C42.2862 63.7689 43.0179 65.9291 44.2732 68.483C45.7914 71.572 46.4691 72.234 47.2808 71.421C47.6663 71.0349 47.6627 70.4129 47.2716 69.839C46.7808 69.1188 45.4933 66.5134 45.0095 65.2615C44.1235 62.9683 43.4859 60.1556 43.2823 57.6437L43.1779 56.3545H54.0055H64.833L65.0201 56.9948C65.123 57.3471 65.3413 57.8669 65.5051 58.1501L65.8029 58.6651L59.7009 64.7838C56.2194 68.2744 53.5987 71.0178 53.5987 71.1715C53.5987 71.9667 54.3925 72.4708 55.0738 72.1083C55.2967 71.9898 58.1137 69.249 61.3341 66.0179L67.189 60.143L68.028 60.5624C68.4894 60.7931 69.0532 61.0266 69.2806 61.0816L69.6943 61.1815V70.9788V80.7759L70.0636 81.1457C70.5072 81.5901 70.8931 81.6144 71.3699 81.2276L71.7251 80.9397L71.8003 71.0462L71.8755 61.1526L72.6397 60.883C73.0599 60.7349 73.59 60.4915 73.8176 60.342L74.2315 60.0705L81.8934 67.7446L89.5554 75.4187L88.4576 76.3435C85.1341 79.1432 81.4273 81.0286 77.118 82.1113C76.1535 82.3537 75.2804 82.6407 75.1779 82.7494C74.58 83.3829 75.0284 84.3794 75.9104 84.3768C76.8603 84.3741 81.1246 83.1152 82.385 82.4653C82.6221 82.3432 82.8641 82.2999 82.9229 82.3691C82.9819 82.4382 83.5956 83.8744 84.287 85.5603C85.644 88.87 85.8952 89.2289 86.6661 88.9574C86.8871 88.8795 87.1553 88.6331 87.2621 88.4097C87.4417 88.0345 87.3536 87.7553 86.1031 84.7348C85.3586 82.9371 84.7821 81.4136 84.8218 81.3494C84.8613 81.2852 85.2637 81.0208 85.7157 80.7616C86.1679 80.5025 87.0506 79.9221 87.6773 79.4718C88.304 79.0215 88.8464 78.6529 88.8828 78.6529C88.9191 78.6529 88.9489 78.8104 88.9489 79.0028C88.9489 80.1659 90.1869 81.9727 91.4139 82.6003C92.2916 83.0492 93.8019 83.1334 94.8314 82.7909C95.9742 82.4107 97.2568 81.114 97.585 80.007C97.8831 79.0017 97.8869 78.3171 97.5999 77.3489C97.1384 75.7924 95.8576 74.6098 94.2776 74.2812L93.4764 74.1147L94.385 72.8874C97.2259 69.0497 99.1193 64.4414 99.857 59.5691L99.9521 58.9417L100.725 59.3431C101.816 59.9099 103.422 59.9036 104.536 59.328C105.518 58.821 106.461 57.75 106.785 56.7744C107.113 55.7839 107.017 54.2595 106.571 53.3841C105.476 51.2364 102.645 50.2937 100.647 51.4116L99.9814 51.7845L99.6473 49.9537C98.8516 45.5931 96.5485 40.4515 93.9605 37.2577C93.5305 36.7272 93.4884 36.6168 93.7148 36.6141C94.2057 36.6082 95.3295 36.0102 95.919 35.4415C97.816 33.6115 97.7518 30.6917 95.7764 28.9502C94.9468 28.2187 93.9985 27.8784 92.7956 27.8803C90.8408 27.8835 88.9941 29.3808 88.5812 31.2974L88.4777 31.7779L86.8706 30.71C84.9271 29.4186 82.1878 28.0748 80.0128 27.3459C78.4824 26.8329 75.2414 26.0746 74.5689 26.0721C74.2621 26.0708 74.2652 26.0479 74.6817 25.2209C75.7196 23.16 74.8312 20.4955 72.7544 19.4401C71.7273 18.9182 69.9043 18.8487 68.9422 19.2948ZM72.0605 21.3472C72.8321 21.9241 73.0789 22.4116 73.0789 23.3589C73.0789 24.7501 72.2603 25.6256 70.8663 25.7252C69.4112 25.8292 68.3405 24.8261 68.3405 23.3589C68.3405 21.8917 69.4112 20.8886 70.8663 20.9925C71.3502 21.027 71.8185 21.1661 72.0605 21.3472ZM69.6578 38.6725L69.6191 49.466L69.0033 49.6481C68.6645 49.7483 68.1032 49.9901 67.7562 50.1855L67.125 50.5408L59.5345 42.9393C55.3597 38.7585 51.944 35.2934 51.944 35.239C51.944 35.071 54.6649 32.9249 55.8252 32.1776C57.3934 31.1675 60.3279 29.7832 62.198 29.1712C64.342 28.4696 67.0373 27.9599 68.9056 27.9029L69.6963 27.8788L69.6578 38.6725ZM74.0606 28.0355C79.4177 28.6941 84.6355 31.0628 88.9489 34.794L89.4754 35.2495L81.8474 42.8953L74.2196 50.5411L73.5882 50.1857C73.2409 49.9903 72.6797 49.7483 72.3409 49.6481L71.7251 49.466L71.6864 38.6725L71.6479 27.8788H72.217C72.5298 27.8788 73.3596 27.9493 74.0606 28.0355ZM94.1873 30.2446C94.9847 30.8361 95.2992 31.4859 95.2349 32.4086C95.1356 33.8305 94.2476 34.6588 92.8219 34.6588C92.0776 34.6588 91.3656 34.2617 90.843 33.5554C90.3573 32.8988 90.4012 31.5629 90.9315 30.8667C91.1531 30.5756 91.5592 30.2226 91.834 30.0823C92.4732 29.7558 93.6366 29.8361 94.1873 30.2446ZM49.0644 31.1781C50.365 32.1057 50.3784 34.189 49.0897 35.108C48.1575 35.7729 46.8435 35.6893 46.0214 34.9128C44.7961 33.7552 45.0716 31.7446 46.5601 30.9842C47.2379 30.6378 48.437 30.7306 49.0644 31.1781ZM65.506 52.4481C65.3416 52.7322 65.123 53.2526 65.0201 53.6049L64.833 54.2452H54.0262H43.2193L43.222 53.6802C43.2235 53.3695 43.3228 52.4246 43.4427 51.5804C44.1595 46.5304 46.1428 41.9731 49.3534 37.9984L50.4894 36.5921L58.147 44.2618L65.8046 51.9317L65.506 52.4481ZM91.9769 38.0112C95.2483 42.0876 97.2352 46.7095 97.9 51.7894C98.0236 52.7343 98.1249 53.6733 98.1249 53.8762V54.2452H87.3217H76.5184L76.2678 53.4486C76.1298 53.0105 75.9176 52.519 75.796 52.3563C75.5877 52.0774 76.0106 51.6241 83.2017 44.4143C87.3962 40.2088 90.8621 36.7681 90.9038 36.7682C90.9455 36.7682 91.4285 37.3276 91.9769 38.0112ZM71.97 51.6128C74.5111 52.48 75.4099 55.7752 73.6704 57.8459C72.3714 59.3921 69.9309 59.6533 68.3157 58.4192C66.8663 57.3121 66.3988 55.1837 67.2354 53.502C68.0742 51.816 70.1447 50.9898 71.97 51.6128ZM39.7565 53.2282C40.6162 53.6682 40.9882 54.1994 41.0757 55.1114C41.22 56.6149 40.2126 57.7105 38.6861 57.7105C37.1789 57.7105 36.1924 56.6213 36.3369 55.1168C36.376 54.7079 36.5399 54.192 36.7012 53.9704C37.0508 53.4893 38.1641 52.8892 38.7065 52.8892C38.9197 52.8892 39.3922 53.0417 39.7565 53.2282ZM103.65 53.1851C105.158 53.8709 105.475 55.889 104.259 57.0659C102.733 58.542 100.233 57.511 100.231 55.4053C100.23 53.5089 101.931 52.4038 103.65 53.1851ZM98.1218 56.8442C98.1115 58.5904 97.3416 62.3886 96.5415 64.6411C95.5636 67.3942 93.4668 71.0495 91.6881 73.1015L90.9497 73.9535L83.3049 66.2954L75.6601 58.6374L76.0617 57.7408C76.2827 57.2476 76.4635 56.734 76.4635 56.5993C76.4635 56.3756 77.397 56.3545 87.2942 56.3545H98.1249L98.1218 56.8442ZM41.1133 73.8411C39.1352 74.0614 36.8441 74.5606 34.9459 75.1851C33.0902 75.7954 30.6927 76.8499 30.252 77.2495C29.6976 77.7519 30.1282 78.9543 30.8624 78.9543C31.0158 78.9543 31.7931 78.6492 32.5899 78.2763C33.3865 77.9034 34.0734 77.5983 34.1161 77.5983C34.1588 77.5983 34.1937 81.6218 34.1937 86.5395C34.1937 95.0103 34.2082 95.4938 34.4689 95.73C34.7885 96.0198 35.706 96.0618 35.9688 95.7986C36.1053 95.6618 36.1493 93.3349 36.1493 86.249V76.88L36.4877 76.7817C37.895 76.3728 40.5796 75.9181 42.0535 75.8391L43.821 75.7443V85.6124C43.821 94.9812 43.835 95.4933 44.0961 95.73C44.4158 96.0198 45.3332 96.0618 45.596 95.7986C45.7328 95.6616 45.7765 93.2138 45.7765 85.704V75.7903H46.7466C47.951 75.7903 50.7447 76.1563 52.2449 76.5105L53.3731 76.7768L53.4119 86.1039C53.4468 94.5196 53.4748 95.4576 53.6984 95.7052C53.9833 96.0205 54.9431 96.0793 55.2233 95.7986C55.3597 95.6619 55.4038 93.4148 55.4038 86.608C55.4038 78.7426 55.4322 77.5983 55.6271 77.5983C56.0233 77.5983 59.491 79.4492 61.2328 80.5903L62.9251 81.6989L62.9274 88.4249C62.929 93.5266 62.9752 95.2417 63.1189 95.5274C63.2673 95.8229 63.4423 95.9139 63.93 95.9497C65.0538 96.0321 65.0311 96.1704 65.0311 89.231V83.1521L66.1969 83.9678C67.6103 84.9569 71.4806 87.3784 72.3644 87.8266L73.0037 88.151V91.8843C73.0037 94.5872 73.0535 95.6677 73.1842 95.7986C73.4652 96.08 74.4242 96.0204 74.7103 95.7038C74.9246 95.4665 74.9592 95.0046 74.9592 92.3731C74.9592 89.9871 75.0004 89.3352 75.1473 89.3971C75.2508 89.4407 75.9445 89.7438 76.6891 90.0708C78.3837 90.8148 79.9616 91.3472 81.4652 91.682L82.631 91.9417V93.7797C82.631 95.8316 82.692 95.9794 83.5403 95.9794C84.4424 95.9794 84.5865 95.6835 84.5865 93.832V92.2355L87.0309 92.2271C88.3754 92.2226 90.0677 92.1292 90.7916 92.0196L92.1078 91.8203V93.6084C92.1078 94.5919 92.1779 95.5277 92.2635 95.688C92.4858 96.104 93.6853 96.104 93.9077 95.688C93.9933 95.5277 94.0633 94.4768 94.0633 93.3527C94.0633 91.5072 94.0889 91.3086 94.3266 91.3071C94.8179 91.3038 98.9448 89.8431 100.441 89.143C101.26 88.7597 101.953 88.4461 101.983 88.4461C102.012 88.4461 102.036 89.9905 102.036 91.8778C102.036 95.8126 102.078 95.9794 103.079 95.9794C103.395 95.9794 103.729 95.889 103.82 95.7786C103.931 95.6454 104 94.1875 104.027 91.4497L104.067 87.3214L105.217 86.5654C106.759 85.5517 107 85.314 107 84.8068C107 84.3276 106.537 83.7755 106.135 83.7755C105.99 83.7755 105.161 84.2225 104.292 84.7689C100.828 86.9476 96.1177 88.8861 92.4839 89.6289C87.6377 90.6193 83.0201 90.3463 78.9455 88.8281C76.3598 87.8647 72.0411 85.4877 68.3405 82.9909C67.3063 82.2931 65.0868 80.7942 63.408 79.6598C56.8446 75.2245 52.8315 73.9041 45.4757 73.7595C43.7796 73.7262 41.8166 73.7629 41.1133 73.8411ZM94.6723 76.5817C96.2412 77.6408 96.1248 79.945 94.4615 80.7515C93.6709 81.1348 93.1206 81.1413 92.3192 80.7767C91.6113 80.4547 91.11 79.743 90.9778 78.872C90.8618 78.1077 91.3703 77.0631 92.0925 76.5825C92.796 76.1142 93.979 76.1139 94.6723 76.5817Z" fill="white"/>
<defs>
<filter id="filter0_d_425_308" x="0" y="0" width="152" height="151.854" filterUnits="userSpaceOnUse" color-interpolation-filters="sRGB">
<feFlood flood-opacity="0" result="BackgroundImageFix"/>
<feColorMatrix in="SourceAlpha" type="matrix" values="0 0 0 0 0 0 0 0 0 0 0 0 0 0 0 0 0 0 127 0" result="hardAlpha"/>
<feOffset dx="2" dy="4"/>
<feGaussianBlur stdDeviation="4"/>
<feComposite in2="hardAlpha" operator="out"/>
<feColorMatrix type="matrix" values="0 0 0 0 0 0 0 0 0 0 0 0 0 0 0 0 0 0 0.1 0"/>
<feBlend mode="normal" in2="BackgroundImageFix" result="effect1_dropShadow_425_308"/>
<feBlend mode="normal" in="SourceGraphic" in2="effect1_dropShadow_425_308" result="shape"/>
</filter>
</defs>
</svg>
